<svg width="495" height="500" viewBox="0 0 495 500" fill="none" xmlns="http://www.w3.org/2000/svg">
<path d="M454.48 0.0447853H42.2987C36.9861 -0.206754 31.6762 0.60311 26.6735 2.42849C21.6709 4.25386 17.0736 7.05854 13.1444 10.6818C9.21558 14.3054 6.03205 18.6768 3.77664 23.5453C1.52122 28.4141 0.237737 33.6846 0 39.0552V456.624C0.31122 467.862 4.86775 478.557 12.7338 486.506C20.5998 494.457 31.1788 499.064 42.2987 499.379H454.48C465.289 498.892 475.481 494.142 482.87 486.15C490.258 478.157 494.253 467.559 494 456.624V39.0552C494.09 33.8278 493.12 28.6375 491.153 23.8021C489.187 18.967 486.263 14.5888 482.561 10.9359C478.862 7.28324 474.462 4.43331 469.633 2.5605C464.805 0.687685 459.648 -0.168368 454.48 0.0447853ZM154.375 416.365H82.4363V193.849H154.375V416.365ZM120.104 160.144C115.084 160.32 110.082 159.446 105.412 157.575C100.742 155.705 96.5057 152.878 92.9686 149.273C89.4313 145.668 86.6695 141.363 84.8572 136.628C83.0445 131.893 82.2204 126.83 82.4363 121.757C82.2143 116.63 83.055 111.512 84.9047 106.733C86.7544 101.953 89.5721 97.6167 93.1767 94.0025C96.7817 90.3879 101.094 87.5751 105.837 85.7444C110.581 83.9134 115.651 83.1051 120.721 83.371C125.741 83.1944 130.743 84.0685 135.413 85.9392C140.083 87.8098 144.319 90.6363 147.856 94.2412C151.394 97.8461 154.155 102.151 155.968 106.887C157.781 111.622 158.605 116.685 158.389 121.757C158.611 126.885 157.77 132.002 155.92 136.782C154.071 141.562 151.253 145.898 147.648 149.512C144.043 153.127 139.731 155.939 134.988 157.77C130.244 159.601 125.174 160.409 120.104 160.144ZM411.873 416.365H339.625V294.652C339.625 265.629 329.436 245.655 303.81 245.655C295.85 245.724 288.104 248.28 281.639 252.974C275.17 257.667 270.298 264.268 267.686 271.87C265.679 277.569 264.84 283.62 265.216 289.659V416.365H194.204V193.849H265.216V225.058C271.53 213.333 280.925 203.602 292.368 196.936C303.81 190.273 316.852 186.936 330.054 187.295C376.675 187.295 411.873 218.504 411.873 284.978V416.365Z" fill="currentColor"/>
</svg>
