<svg width="48" height="48" viewBox="0 0 48 48" fill="none" xmlns="http://www.w3.org/2000/svg">
<g clip-path="url(#clip0_123_3)">
<path d="M23.5101 45.4601C35.6327 45.4601 45.4601 35.6327 45.4601 23.5101C45.4601 11.3874 35.6327 1.56006 23.5101 1.56006C11.3874 1.56006 1.56006 11.3874 1.56006 23.5101C1.56006 35.6327 11.3874 45.4601 23.5101 45.4601Z" stroke="#0B0B0B" stroke-width="3.12" stroke-linejoin="round"/>
<path d="M21.1675 14.2989L27.3115 23.511L21.1675 32.7214H26.7853L30.1213 27.7216L33.4556 32.7214H39.0734L26.7851 14.2988L21.1675 14.2989Z" fill="#0B0B0B"/>
<path d="M14.5569 14.2988L20.7009 23.5109L14.5569 32.7213H20.1748C22.1665 29.5782 24.038 26.7085 26.117 23.2074L20.1748 14.2988H14.5569Z" fill="#0B0B0B" fill-opacity="0.62"/>
<path d="M7.94653 14.2988L14.0905 23.5109L7.94653 32.7213H13.5644C15.5561 29.5782 17.4277 26.7085 19.5067 23.2074L13.5644 14.2988H7.94653Z" fill="#0B0B0B" fill-opacity="0.29"/>
</g>
<defs>
<clipPath id="clip0_123_3">
<rect width="47.02" height="47.02" fill="white"/>
</clipPath>
</defs>
</svg>
