<svg width="634" height="489" viewBox="0 0 634 489" fill="none" xmlns="http://www.w3.org/2000/svg">
<path d="M536.278 41C495.278 22 451.612 8 405.612 0C399.945 10 393.278 23.6667 388.945 34.6667C340.278 27.3333 291.945 27.3333 244.279 34.6667C239.612 23.6667 232.945 10 227.279 0C181.279 8 137.612 22 96.612 41C13.9453 165.667 -8.38804 287.334 2.61196 407.001C57.612 448.001 110.612 472.668 162.945 489.001C175.945 471.334 187.279 452.334 197.279 432.668C178.279 425.668 160.279 416.668 143.279 406.334C147.945 403.001 152.279 399.334 156.612 396.001C260.945 444.668 373.945 444.668 476.945 396.001C481.278 399.668 485.612 403.001 490.278 406.334C473.278 416.668 454.945 425.334 436.278 432.668C446.278 452.334 457.612 471.334 470.612 489.001C522.945 472.668 576.278 448.001 630.945 407.001C643.945 268.001 608.612 147.667 536.945 41H536.278ZM211.279 333.668C179.945 333.668 154.279 304.668 154.279 269.001C154.279 233.334 179.279 204.334 211.279 204.334C243.279 204.334 268.612 233.334 268.278 269.001C268.278 304.334 243.279 333.668 211.279 333.668ZM421.612 333.668C390.278 333.668 364.612 304.668 364.612 269.001C364.612 233.334 389.612 204.334 421.612 204.334C453.612 204.334 478.945 233.334 478.612 269.001C478.612 304.334 453.612 333.668 421.612 333.668Z" fill="currentColor"/>
</svg>
